<?xml version="1.0" encoding="UTF-8"?><svg id="Layer_2" xmlns="http://www.w3.org/2000/svg" viewBox="0 0 95.04 126.73"><defs><style>.cls-1{font-size:11.03px;}.cls-1,.cls-2,.cls-3,.cls-4,.cls-5,.cls-6,.cls-7,.cls-8{isolation:isolate;}.cls-1,.cls-2,.cls-5,.cls-6,.cls-7,.cls-8{fill:#333;}.cls-1,.cls-4{font-family:Roboto-Bold, Roboto;font-weight:700;}.cls-2,.cls-5,.cls-6,.cls-7,.cls-8{font-family:Roboto-Medium, Roboto;font-weight:500;}.cls-2,.cls-8{font-size:4.8px;}.cls-3,.cls-9{fill:none;}.cls-10{fill:#e48175;}.cls-10,.cls-11,.cls-12,.cls-13,.cls-14,.cls-15,.cls-16,.cls-17,.cls-18,.cls-19,.cls-20,.cls-21,.cls-9{stroke:#333;stroke-miterlimit:10;stroke-width:.3px;}.cls-11{fill:#e47876;}.cls-12{fill:#e69f72;}.cls-13{fill:#e47c76;}.cls-14{fill:#e6a871;}.cls-15{fill:#e6a471;}.cls-16{fill:#e59773;}.cls-17{fill:#e58974;}.cls-18{fill:#e58575;}.cls-19{fill:#e58e74;}.cls-20{fill:#e59b72;}.cls-21{fill:#e59273;}.cls-4{fill:#fff;font-size:3.59px;}.cls-5,.cls-6,.cls-7{font-size:3.91px;}.cls-6{letter-spacing:0em;}.cls-7{letter-spacing:-.02em;}.cls-8{letter-spacing:0em;}</style></defs><g id="Layer_1-2"><rect class="cls-19" x="23.11" y=".15" width="25.33" height="5.98"/><rect class="cls-10" x="23.11" y="9.12" width="29.27" height="5.98"/><rect class="cls-17" x="23.11" y="18.09" width="27.02" height="5.98"/><rect class="cls-21" x="23.11" y="27.07" width="23.08" height="5.98"/><rect class="cls-18" x="23.11" y="36.04" width="27.87" height="5.98"/><rect class="cls-13" x="23.11" y="45.01" width="29.55" height="5.98"/><rect class="cls-16" x="23.11" y="53.98" width="18.86" height="5.98"/><rect class="cls-15" x="23.11" y="62.95" width="15.48" height="5.98"/><rect class="cls-11" x="23.11" y="71.93" width="71.78" height="5.98"/><rect class="cls-14" x="23.11" y="80.9" width="12.1" height="5.98"/><rect class="cls-20" x="23.11" y="89.87" width="16.61" height="5.98"/><rect class="cls-12" x="23.11" y="98.84" width="16.33" height="5.98"/><g class="cls-3"><text class="cls-5" transform="translate(10.12 4.64)"><tspan x="0" y="0">Ene</tspan></text><text class="cls-7" transform="translate(16.61 4.64)"><tspan x="0" y="0">r</tspan></text><text class="cls-5" transform="translate(17.91 4.64)"><tspan x="0" y="0">o</tspan></text></g><g class="cls-3"><text class="cls-5" transform="translate(6.68 13.61)"><tspan x="0" y="0">Febre</tspan></text><text class="cls-7" transform="translate(16.61 13.61)"><tspan x="0" y="0">r</tspan></text><text class="cls-5" transform="translate(17.91 13.61)"><tspan x="0" y="0">o</tspan></text></g><g class="cls-3"><text class="cls-5" transform="translate(9.06 22.58)"><tspan x="0" y="0">Mar</tspan></text><text class="cls-5" transform="translate(15.98 22.58)"><tspan x="0" y="0">z</tspan></text><text class="cls-5" transform="translate(17.91 22.58)"><tspan x="0" y="0">o</tspan></text></g><g class="cls-3"><text class="cls-5" transform="translate(11.97 31.55)"><tspan x="0" y="0">Abril</tspan></text></g><g class="cls-3"><text class="cls-5" transform="translate(10.47 40.53)"><tspan x="0" y="0">Mayo</tspan></text></g><g class="cls-3"><text class="cls-5" transform="translate(10.4 49.5)"><tspan x="0" y="0">Junio</tspan></text></g><g class="cls-3"><text class="cls-5" transform="translate(11.57 58.47)"><tspan x="0" y="0">Julio</tspan></text></g><g class="cls-3"><text class="cls-5" transform="translate(7.6 67.44)"><tspan x="0" y="0">Agos</tspan></text><text class="cls-6" transform="translate(16.67 67.44)"><tspan x="0" y="0">t</tspan></text><text class="cls-5" transform="translate(17.91 67.44)"><tspan x="0" y="0">o</tspan></text></g><g class="cls-3"><text class="cls-5" transform="translate(0 76.41)"><tspan x="0" y="0">Septiembre</tspan></text></g><g class="cls-3"><text class="cls-5" transform="translate(6.24 85.38)"><tspan x="0" y="0">Octubre</tspan></text></g><g class="cls-3"><text class="cls-5" transform="translate(1.05 94.36)"><tspan x="0" y="0">N</tspan></text><text class="cls-5" transform="translate(3.83 94.36)"><tspan x="0" y="0">o</tspan></text><text class="cls-5" transform="translate(6.03 94.36)"><tspan x="0" y="0">viembre</tspan></text></g><g class="cls-3"><text class="cls-5" transform="translate(2.36 103.33)"><tspan x="0" y="0">Diciembre</tspan></text></g><g class="cls-3"><text class="cls-4" transform="translate(42.96 4.64)"><tspan x="0" y="0">90</tspan></text></g><g class="cls-3"><text class="cls-4" transform="translate(44.9 13.61)"><tspan x="0" y="0">104</tspan></text></g><g class="cls-3"><text class="cls-4" transform="translate(44.65 22.58)"><tspan x="0" y="0">96</tspan></text></g><g class="cls-3"><text class="cls-4" transform="translate(40.71 31.55)"><tspan x="0" y="0">82</tspan></text></g><g class="cls-3"><text class="cls-4" transform="translate(45.49 40.53)"><tspan x="0" y="0">99</tspan></text></g><g class="cls-3"><text class="cls-4" transform="translate(45.18 49.5)"><tspan x="0" y="0">105</tspan></text></g><g class="cls-3"><text class="cls-4" transform="translate(36.48 58.47)"><tspan x="0" y="0">67</tspan></text></g><g class="cls-3"><text class="cls-4" transform="translate(33.11 67.44)"><tspan x="0" y="0">55</tspan></text></g><g class="cls-3"><text class="cls-4" transform="translate(87.41 76.41)"><tspan x="0" y="0">255</tspan></text></g><g class="cls-3"><text class="cls-4" transform="translate(29.73 85.38)"><tspan x="0" y="0">43</tspan></text></g><g class="cls-3"><text class="cls-4" transform="translate(34.23 94.36)"><tspan x="0" y="0">59</tspan></text></g><g class="cls-3"><text class="cls-4" transform="translate(33.95 103.33)"><tspan x="0" y="0">58</tspan></text></g><line class="cls-9" x1="23.11" y1=".15" x2="23.11" y2="104.82"/><g class="cls-3"><text class="cls-1" transform="translate(10.91 123.74)"><tspan x="0" y="0">1113</tspan></text></g><g class="cls-3"><text class="cls-2" transform="translate(38.11 119.02)"><tspan x="0" y="0">Violaciones du</tspan></text><text class="cls-8" transform="translate(69.76 119.02)"><tspan x="0" y="0">r</tspan></text><text class="cls-2" transform="translate(71.38 119.02)"><tspan x="0" y="0">ante</tspan></text><text class="cls-2" transform="translate(38.11 123.82)"><tspan x="0" y="0">el año 2022</tspan></text></g></g></svg>